<svg width="15" height="15" viewBox="0 0 15 15" fill="none" xmlns="http://www.w3.org/2000/svg">
<path d="M7.5 2.66602C4.83454 2.66602 2.66602 4.83454 2.66602 7.5C2.66602 10.1655 4.83454 12.334 7.5 12.334C10.1655 12.334 12.334 10.1655 12.334 7.5C12.334 4.83454 10.1655 2.66602 7.5 2.66602ZM10.1367 7.93945H7.93945V8.37891C7.93945 8.62181 7.7429 8.81836 7.5 8.81836C7.2571 8.81836 7.06055 8.62181 7.06055 8.37891V7.93945H6.62109C6.37819 7.93945 6.18164 7.7429 6.18164 7.5C6.18164 7.2571 6.37819 7.06055 6.62109 7.06055H7.06055V3.98438C7.06055 3.74147 7.2571 3.54492 7.5 3.54492C7.7429 3.54492 7.93945 3.74147 7.93945 3.98438V7.06055H10.1367C10.3796 7.06055 10.5762 7.2571 10.5762 7.5C10.5762 7.7429 10.3796 7.93945 10.1367 7.93945Z" fill="#939598"/>
<path d="M7.5 0C3.38057 0 0 3.38057 0 7.5C0 11.6194 3.38057 15 7.5 15C11.6194 15 15 11.6194 15 7.5C15 3.38057 11.6194 0 7.5 0ZM7.5 13.2129C4.35 13.2129 1.78711 10.65 1.78711 7.5C1.78711 4.35 4.35 1.78711 7.5 1.78711C10.65 1.78711 13.2129 4.35 13.2129 7.5C13.2129 10.65 10.65 13.2129 7.5 13.2129Z" fill="#939598"/>
</svg>
