<svg width="15" height="15" viewBox="0 0 15 15" fill="none" xmlns="http://www.w3.org/2000/svg">
<path d="M7.5 15C11.6421 15 15 11.6421 15 7.5C15 3.35786 11.6421 0 7.5 0C3.35786 0 0 3.35786 0 7.5C0 11.6421 3.35786 15 7.5 15Z" fill="#FE8205"/>
<path d="M15 7.5C15 3.38057 11.6194 0 7.5 0V15C11.6194 15 15 11.6194 15 7.5Z" fill="#FA5D0F"/>
<path d="M7.5 1.78711C4.35 1.78711 1.78711 4.35 1.78711 7.5C1.78711 10.65 4.35 13.2422 7.5 13.2422C10.65 13.2422 13.2129 10.65 13.2129 7.5C13.2129 4.35 10.65 1.78711 7.5 1.78711Z" fill="#F0F7FF"/>
<path d="M13.2129 7.5C13.2129 4.35 10.65 1.78711 7.5 1.78711V13.2422C10.65 13.2422 13.2129 10.65 13.2129 7.5Z" fill="#DFE7F4"/>
<path d="M7.5 3.54492C7.2571 3.54492 7.06055 3.74147 7.06055 3.98438V8.37891C7.06055 8.62181 7.2571 8.81836 7.5 8.81836C7.7429 8.81836 7.93945 8.62181 7.93945 8.37891V3.98438C7.93945 3.74147 7.7429 3.54492 7.5 3.54492Z" fill="#575F64"/>
<path d="M7.93945 8.37891V3.98438C7.93945 3.74147 7.7429 3.54492 7.5 3.54492V8.81836C7.7429 8.81836 7.93945 8.62181 7.93945 8.37891Z" fill="#474F54"/>
<path d="M10.1367 7.06055H7.5H6.62109C6.37819 7.06055 6.18164 7.2571 6.18164 7.5C6.18164 7.7429 6.37819 7.93945 6.62109 7.93945H7.5H10.1367C10.3796 7.93945 10.5762 7.7429 10.5762 7.5C10.5762 7.2571 10.3796 7.06055 10.1367 7.06055Z" fill="#575F64"/>
<path d="M10.5762 7.5C10.5762 7.2571 10.3796 7.06055 10.1367 7.06055H7.5V7.93945H10.1367C10.3796 7.93945 10.5762 7.7429 10.5762 7.5Z" fill="#474F54"/>
</svg>
