<svg width="30" height="30" viewBox="0 0 30 30" fill="none" xmlns="http://www.w3.org/2000/svg">
<path d="M13.6911 20.9477C13.8572 21.1136 14.0825 21.207 14.3175 21.207C14.5523 21.207 14.7776 21.1139 14.9437 20.9477L18.1062 17.7852C18.4523 17.4392 18.4523 16.8784 18.1062 16.5323C17.7604 16.1865 17.1994 16.1865 16.8535 16.5323L14.3175 19.0683L13.1612 17.912C12.8151 17.5662 12.2544 17.5662 11.9083 17.912C11.5625 18.2579 11.5625 18.8189 11.9083 19.1649L13.6911 20.9477Z" fill="#212862"/>
<path d="M15.0073 25.7721C18.8848 25.7721 22.0392 22.6174 22.0392 18.7399C22.0392 14.8625 18.8848 11.708 15.0073 11.708C11.1295 11.708 7.9751 14.8625 7.9751 18.7399C7.9751 22.6174 11.1298 25.7721 15.0073 25.7721ZM15.0073 13.4796C17.9079 13.4796 20.2677 15.8393 20.2677 18.7399C20.2677 21.6406 17.9079 24.0006 15.0073 24.0006C12.1066 24.0006 9.74664 21.6406 9.74664 18.7399C9.74664 15.8393 12.1066 13.4796 15.0073 13.4796Z" fill="#212862"/>
<path d="M26.7975 1.88622H25.1818V0.885773C25.1818 0.396652 24.7852 0 24.296 0C23.8069 0 23.4103 0.396652 23.4103 0.885773V1.88622H21.6696V0.885773C21.6696 0.396652 21.273 0 20.7836 0C20.2945 0 19.8978 0.396652 19.8978 0.885773V1.88622H10.1163V0.885773C10.1163 0.396652 9.7197 0 9.23035 0C8.74123 0 8.34457 0.396652 8.34457 0.885773V1.88622H6.60393V0.885773C6.60393 0.396652 6.20728 0 5.71793 0C5.22881 0 4.83215 0.396652 4.83215 0.885773V1.88622H3.21625C1.63673 1.88622 0.351562 3.17139 0.351562 4.75113V27.1353C0.351562 28.7148 1.63673 30 3.21625 30H26.7975C28.3772 30 29.6622 28.7148 29.6622 27.1353V4.75113C29.6622 3.17139 28.377 1.88622 26.7975 1.88622ZM27.8904 27.1353C27.8904 27.738 27.4001 28.2285 26.7975 28.2285H3.21625C2.6136 28.2285 2.12311 27.738 2.12311 27.1353V9.25186H27.8904V27.1353ZM2.12311 4.75113C2.12311 4.14825 2.6136 3.65799 3.21625 3.65799H4.83215V4.65843C4.83215 5.14755 5.22881 5.5442 5.71815 5.5442C6.20728 5.5442 6.60393 5.14755 6.60393 4.65843V3.65799H8.34457V4.65843C8.34457 5.14755 8.74123 5.5442 9.23058 5.5442C9.7197 5.5442 10.1163 5.14755 10.1163 4.65843V3.65799H19.8978V4.65843C19.8978 5.14755 20.2945 5.5442 20.7838 5.5442C21.273 5.5442 21.6696 5.14755 21.6696 4.65843V3.65799H23.4103V4.65843C23.4103 5.14755 23.8069 5.5442 24.296 5.5442C24.7854 5.5442 25.182 5.14755 25.182 4.65843V3.65799H26.7975C27.4001 3.65799 27.8906 4.14825 27.8906 4.75113V7.48009H2.12311V4.75113Z" fill="#212862"/>
</svg>
