<svg width="30" height="30" viewBox="0 0 30 30" fill="none" xmlns="http://www.w3.org/2000/svg">
<path d="M25.6055 15.712H22.6689C22.2692 15.712 21.8822 15.7667 21.514 15.8671C20.7875 14.439 19.3044 13.4578 17.5954 13.4578H12.4046C10.6956 13.4578 9.21246 14.439 8.48602 15.8671C8.11775 15.7667 7.7308 15.712 7.33113 15.712H4.39453C1.97139 15.712 0 17.6834 0 20.1066V24.801C0 26.2549 1.18283 27.4377 2.63672 27.4377H27.3633C28.8172 27.4377 30 26.2549 30 24.801V20.1066C30 17.6834 28.0286 15.712 25.6055 15.712ZM8.01006 17.8525V25.68H2.63672C2.15209 25.68 1.75781 25.2857 1.75781 24.801V20.1066C1.75781 18.6527 2.94064 17.4699 4.39453 17.4699H7.33113C7.56973 17.4699 7.80076 17.5023 8.02072 17.562C8.01439 17.6582 8.01006 17.7549 8.01006 17.8525ZM20.2321 25.68H9.76787V17.8524C9.76787 16.3985 10.9507 15.2157 12.4046 15.2157H17.5954C19.0493 15.2157 20.2321 16.3985 20.2321 17.8524V25.68ZM28.2422 24.801C28.2422 25.2857 27.8479 25.68 27.3633 25.68H21.9899V17.8524C21.9899 17.7547 21.9856 17.6581 21.9793 17.562C22.1992 17.5023 22.4303 17.4699 22.6689 17.4699H25.6055C27.0594 17.4699 28.2422 18.6527 28.2422 20.1066V24.801Z" fill="#212862"/>
<path d="M5.86305 7.41235C3.70978 7.41235 1.95801 9.16413 1.95801 11.3174C1.95795 13.4707 3.70978 15.2224 5.86305 15.2224C8.01625 15.2224 9.76808 13.4707 9.76808 11.3174C9.76808 9.16413 8.01631 7.41235 5.86305 7.41235ZM5.86299 13.4646C4.67898 13.4646 3.71576 12.5014 3.71576 11.3174C3.71576 10.1334 4.67898 9.17017 5.86299 9.17017C7.04699 9.17017 8.01021 10.1334 8.01021 11.3174C8.01021 12.5014 7.04699 13.4646 5.86299 13.4646Z" fill="#212862"/>
<path d="M15.0003 2.56226C12.1236 2.56226 9.7832 4.90261 9.7832 7.77933C9.7832 10.656 12.1236 12.9964 15.0003 12.9964C17.877 12.9964 20.2173 10.656 20.2173 7.77933C20.2173 4.90267 17.877 2.56226 15.0003 2.56226ZM15.0003 11.2386C13.0928 11.2386 11.541 9.68679 11.541 7.77933C11.541 5.87192 13.0928 4.32007 15.0003 4.32007C16.9077 4.32007 18.4595 5.87187 18.4595 7.77933C18.4595 9.68679 16.9077 11.2386 15.0003 11.2386Z" fill="#212862"/>
<path d="M24.1375 7.41235C21.9843 7.41235 20.2324 9.16413 20.2324 11.3174C20.2325 13.4707 21.9843 15.2224 24.1375 15.2224C26.2907 15.2224 28.0425 13.4707 28.0425 11.3174C28.0425 9.16413 26.2907 7.41235 24.1375 7.41235ZM24.1375 13.4646C22.9535 13.4646 21.9902 12.5014 21.9902 11.3174C21.9903 10.1334 22.9535 9.17017 24.1375 9.17017C25.3215 9.17017 26.2847 10.1334 26.2847 11.3174C26.2847 12.5014 25.3215 13.4646 24.1375 13.4646Z" fill="#212862"/>
</svg>
