<svg width="29" height="26" viewBox="0 0 29 26" fill="none" xmlns="http://www.w3.org/2000/svg">
<path d="M24.375 0H3.88527C1.74298 0 0 1.74264 0 3.88527V16.4246C0 18.5624 1.73539 20.3022 3.87147 20.3098V26L12.0489 20.3098H24.375C26.5173 20.3098 28.2603 18.5668 28.2603 16.4246V3.88527C28.2603 1.74264 26.5173 0 24.375 0ZM26.6044 16.4246C26.6044 17.6537 25.6043 18.654 24.375 18.654H11.5294L5.52734 22.8306V18.654H3.88527C2.65595 18.654 1.65587 17.6537 1.65587 16.4246V3.88527C1.65587 2.65578 2.65595 1.65588 3.88527 1.65588H24.375C25.6043 1.65588 26.6044 2.65578 26.6044 3.88527V16.4246Z" fill="#212862"/>
<path d="M7.56396 5.85095H20.6968V7.50683H7.56396V5.85095Z" fill="#212862"/>
<path d="M7.56396 9.38342H20.6968V11.0393H7.56396V9.38342Z" fill="#212862"/>
<path d="M7.93896 13.291H20.3218V14.1969H7.93896V13.291Z" fill="#212862" stroke="#212862" stroke-width="0.75"/>
</svg>
