<svg width="19" height="18" viewBox="0 0 19 18" fill="none" xmlns="http://www.w3.org/2000/svg">
<path d="M15.5579 13.007H3.4417C3.25659 13.007 3.08366 12.9204 2.97943 12.7755C1.38083 10.5546 1.25819 6.28241 1.24892 5.64822C1.24834 5.62337 1.24805 5.59824 1.24805 5.57324C1.24805 5.28087 1.49796 5.0437 1.80657 5.04315H1.80773C2.11577 5.04315 2.36611 5.27922 2.36727 5.57118C2.36727 5.57475 2.36742 5.60606 2.36872 5.66154C2.41801 7.16983 3.72858 8.38231 5.3324 8.38231C6.96738 8.38231 8.29752 7.12218 8.29752 5.57324C8.29752 5.28046 8.54816 5.04315 8.85706 5.04315H10.1424C10.4515 5.04315 10.7019 5.28046 10.7019 5.57324C10.7019 7.12218 12.0322 8.38231 13.6672 8.38231C15.2725 8.38231 16.5839 7.16763 16.631 5.65742C16.6321 5.60442 16.6323 5.57475 16.6323 5.57132C16.6335 5.27922 16.8837 5.04315 17.1919 5.04315H17.1929C17.5015 5.0437 17.7514 5.28087 17.7514 5.57324C17.7514 5.59837 17.7511 5.62337 17.7507 5.64836C17.7413 6.28241 17.6186 10.5547 16.0202 12.7756C15.916 12.9204 15.7429 13.007 15.5579 13.007Z" fill="#FFF780"/>
<path d="M17.1929 5.04315C17.1927 5.04315 17.1924 5.04315 17.1919 5.04315C16.8839 5.04315 16.6336 5.27922 16.6324 5.57118C16.6324 5.57475 16.6323 5.60442 16.6311 5.65742C16.584 7.1675 15.2725 8.38231 13.6673 8.38231C12.0323 8.38231 10.7021 7.12218 10.7021 5.57324C10.7021 5.28046 10.4515 5.04315 10.1426 5.04315H9.5V13.0069H15.558C15.7431 13.0069 15.916 12.9202 16.0202 12.7755C17.6188 10.5546 17.7415 6.28227 17.7508 5.64822C17.7513 5.62337 17.7516 5.59824 17.7516 5.57324C17.7515 5.28087 17.5016 5.0437 17.1929 5.04315Z" fill="#FFC02E"/>
<path d="M9.49982 3.23438C8.50294 3.23438 7.69189 4.00273 7.69189 4.94714C7.69189 5.89156 8.50294 6.65977 9.49982 6.65977C10.4967 6.65977 11.3077 5.89156 11.3077 4.94714C11.3077 4.00273 10.4967 3.23438 9.49982 3.23438Z" fill="#FFC02E"/>
<path d="M9.5 3.23438V6.65991C10.4969 6.65977 11.3078 5.89156 11.3078 4.94714C11.3078 4.00273 10.4967 3.23451 9.5 3.23438Z" fill="#FFA73B"/>
<path d="M1.80792 4.55615C0.811043 4.55615 0 5.32451 0 6.26892C0 7.21333 0.811043 7.98169 1.80792 7.98169C2.8048 7.98169 3.6157 7.21333 3.6157 6.26892C3.6157 5.32451 2.8048 4.55615 1.80792 4.55615Z" fill="#FFC02E"/>
<path d="M17.1921 4.55615C16.1952 4.55615 15.3843 5.32451 15.3843 6.26892C15.3843 7.2132 16.1952 7.98155 17.1921 7.98155C18.1889 7.98155 19 7.2132 19 6.26892C19 5.32451 18.1889 4.55615 17.1921 4.55615Z" fill="#FFA73B"/>
<path d="M15.5581 14.746H3.44186C3.13281 14.746 2.88232 14.5087 2.88232 14.2159V12.6351H16.1176V14.2159C16.1176 14.5087 15.8671 14.746 15.5581 14.746Z" fill="#FFC02E"/>
<path d="M9.5 14.746H15.558C15.867 14.746 16.1175 14.5087 16.1175 14.2159V12.6351H9.5V14.746Z" fill="#FFA73B"/>
</svg>
