<svg width="19" height="13" viewBox="0 0 19 13" fill="none" xmlns="http://www.w3.org/2000/svg">
<path d="M2.88232 10.7296V12.0057C2.88232 12.3147 3.13281 12.5652 3.44186 12.5652H15.5581C15.8671 12.5652 16.1176 12.3147 16.1176 12.0057V10.7296H2.88232Z" fill="#939598"/>
<path d="M19 3.61721C19 2.62033 18.189 1.80929 17.1921 1.80929C16.1952 1.80929 15.3843 2.62033 15.3843 3.61721C15.3843 4.09644 15.572 4.53248 15.8776 4.85632C15.3341 5.46427 14.545 5.84798 13.6674 5.84798C12.2468 5.84798 11.057 4.8437 10.7691 3.50806C11.1015 3.18002 11.3079 2.7247 11.3079 2.22198C11.3079 1.22511 10.4969 0.414062 9.5 0.414062C8.50312 0.414062 7.69208 1.22511 7.69208 2.22198C7.69208 2.7247 7.89864 3.18002 8.23089 3.50806C7.943 4.8437 6.75318 5.84798 5.33259 5.84798C4.45501 5.84798 3.66586 5.46427 3.12241 4.85632C3.42798 4.53248 3.61584 4.09644 3.61584 3.61721C3.61584 2.62033 2.8048 1.80929 1.80792 1.80929C0.811043 1.80929 0 2.62033 0 3.61721C0 4.48116 0.609261 5.20509 1.42059 5.3828C1.58106 6.70715 1.89113 8.32068 2.48981 9.61052H16.5102C17.1089 8.32068 17.4189 6.70715 17.5794 5.3828C18.3907 5.20494 19 4.48116 19 3.61721Z" fill="#939598"/>
</svg>
