<svg width="77" height="26" viewBox="0 0 77 26" fill="none" xmlns="http://www.w3.org/2000/svg">
<path d="M4.766 11.142L5.14 13.794L5.072 13.556C5.59333 12.6267 6.33 11.8787 7.282 11.312C8.234 10.7227 9.40133 10.428 10.784 10.428C12.1893 10.428 13.3567 10.8473 14.286 11.686C15.238 12.502 15.7253 13.5673 15.748 14.882V26H10.988V16.65C10.9653 15.9927 10.784 15.4713 10.444 15.086C10.1267 14.678 9.58267 14.474 8.812 14.474C8.08667 14.474 7.452 14.712 6.908 15.188C6.364 15.664 5.94467 16.31 5.65 17.126C5.35533 17.942 5.208 18.8827 5.208 19.948V26H0.448V11.142H4.766Z" fill="#DD4A30"/>
<path d="M20.0235 16.14H26.4155V20.288H20.0235V16.14ZM39.1541 0.975998C41.7607 0.975998 43.8347 1.50867 45.3761 2.574C46.9174 3.61667 47.6881 5.18067 47.6881 7.266C47.6881 8.80733 47.3027 10.0993 46.5321 11.142C45.7841 12.162 44.7527 12.9327 43.4381 13.454C42.1461 13.9527 40.6614 14.202 38.9841 14.202L38.2021 11.55C40.2647 11.55 42.0894 11.8333 43.6761 12.4C45.2854 12.9667 46.5547 13.7827 47.4841 14.848C48.4134 15.8907 48.8781 17.1487 48.8781 18.622C48.8781 19.982 48.6287 21.138 48.1301 22.09C47.6541 23.0193 46.9967 23.7787 46.1581 24.368C45.3421 24.9347 44.4127 25.354 43.3701 25.626C42.3274 25.8753 41.2507 26 40.1401 26H31.8101V0.975998H39.1541ZM39.7321 11.21C40.7067 11.21 41.4207 10.9153 41.8741 10.326C42.3501 9.73667 42.5881 9.068 42.5881 8.32C42.5881 7.45867 42.2934 6.81267 41.7041 6.382C41.1374 5.95133 40.3667 5.736 39.3921 5.736H36.7401V11.21H39.7321ZM39.9021 21.41C40.6274 21.41 41.2847 21.3193 41.8741 21.138C42.4634 20.934 42.9281 20.628 43.2681 20.22C43.6081 19.7893 43.7781 19.2567 43.7781 18.622C43.7781 17.8967 43.5741 17.3527 43.1661 16.99C42.7581 16.6047 42.2254 16.344 41.5681 16.208C40.9334 16.0493 40.2647 15.97 39.5621 15.97H36.7401V21.41H39.9021ZM53.0418 11.142H57.8018V26H53.0418V11.142ZM52.9398 5.872C52.9398 5.16933 53.2118 4.59133 53.7558 4.138C54.3224 3.68467 54.9231 3.458 55.5578 3.458C56.1924 3.458 56.7704 3.68467 57.2918 4.138C57.8358 4.59133 58.1078 5.16933 58.1078 5.872C58.1078 6.57467 57.8358 7.15267 57.2918 7.606C56.7704 8.03667 56.1924 8.252 55.5578 8.252C54.9231 8.252 54.3224 8.03667 53.7558 7.606C53.2118 7.15267 52.9398 6.57467 52.9398 5.872ZM65.0159 15.018C64.1999 15.018 63.4859 14.7233 62.8739 14.134C62.2619 13.5447 61.9559 12.7513 61.9559 11.754V9.714H65.5259V10.19C65.5259 10.666 65.6052 10.9493 65.7639 11.04C65.9452 11.108 66.2512 11.142 66.6819 11.142H76.0999L67.8719 23.11L66.9879 22.124H75.9979V26H60.9359L69.4019 13.658L70.1159 15.018H65.0159Z" fill="#212862"/>
</svg>
