<svg width="15" height="15" viewBox="0 0 15 15" fill="none" xmlns="http://www.w3.org/2000/svg">
<path d="M14.8167 13.934L10.5511 9.66838C11.3774 8.64778 11.8749 7.3509 11.8749 5.93843C11.8749 2.66471 9.21114 0.000976562 5.93742 0.000976562C2.6637 0.000976562 0 2.66468 0 5.9384C0 9.21212 2.66373 11.8758 5.93745 11.8758C7.34993 11.8758 8.6468 11.3784 9.66741 10.5521L13.933 14.8177C14.0549 14.9396 14.2149 15.0008 14.3749 15.0008C14.5349 15.0008 14.6949 14.9396 14.8168 14.8177C15.0611 14.5733 15.0611 14.1783 14.8167 13.934ZM5.93745 10.6259C3.35247 10.6259 1.25 8.52338 1.25 5.9384C1.25 3.35341 3.35247 1.25094 5.93745 1.25094C8.52244 1.25094 10.6249 3.35341 10.6249 5.9384C10.6249 8.52338 8.52241 10.6259 5.93745 10.6259Z" fill="#060606"/>
</svg>
