<svg width="29" height="26" viewBox="0 0 29 26" fill="none" xmlns="http://www.w3.org/2000/svg">
<path d="M0.849609 18.6915H6.00391C7.14527 18.6915 8.89943 19.8062 10.9432 21.8304C12.597 23.4685 13.8672 25.1357 13.8797 25.1521C14.1013 25.4443 14.4832 25.5598 14.8274 25.4441C15.1733 25.3277 15.4062 25.0036 15.4062 24.6387V16.1426C17.2801 16.1426 18.8047 14.6181 18.8047 12.7442C18.8047 10.8703 17.2801 9.34577 15.4062 9.34577V0.84968C15.4062 0.484801 15.1733 0.160703 14.8274 0.0443632C14.4816 -0.07192 14.1002 0.0455527 13.8797 0.336289C13.8672 0.352828 12.6082 2.00673 10.9564 3.64484C8.9068 5.6775 7.14799 6.79695 6.00391 6.79695H0.849609C0.380398 6.79695 0 7.17734 0 7.64655V17.8419C0 18.3111 0.380398 18.6915 0.849609 18.6915ZM15.4062 11.045C16.3432 11.045 17.1055 11.8073 17.1055 12.7442C17.1055 13.6812 16.3432 14.4434 15.4062 14.4434V11.045ZM6.85352 8.39495C8.34022 8.05714 10.1177 6.86984 12.1529 4.8514C12.7299 4.27921 13.2575 3.71003 13.707 3.20236V22.2861C13.2575 21.7784 12.7299 21.2093 12.1529 20.6371C10.1176 18.6186 8.34016 17.4313 6.85352 17.0935V8.39495ZM1.69922 8.49616H5.1543V16.9923H1.69922V8.49616Z" fill="#212862"/>
<path d="M24.0618 3.73664C23.73 4.06844 23.73 4.60636 24.0618 4.93816C26.1505 7.02679 27.3007 9.79901 27.3007 12.7442C27.3007 15.6894 26.1505 18.4616 24.0618 20.5503C23.73 20.8821 23.73 21.42 24.0618 21.7518C24.3936 22.0835 24.9315 22.0836 25.2634 21.7518C27.6729 19.3422 28.9999 16.1433 28.9999 12.7442C28.9999 9.34514 27.6729 6.14619 25.2634 3.73664C24.9316 3.40484 24.3936 3.40484 24.0618 3.73664Z" fill="#212862"/>
<path d="M20.4588 18.1488C20.7906 18.4805 21.3285 18.4807 21.6603 18.1488C23.106 16.7032 23.9022 14.7837 23.9022 12.7442C23.9022 10.7047 23.106 8.78525 21.6603 7.33961C21.3286 7.00781 20.7906 7.00781 20.4588 7.33961C20.127 7.67141 20.127 8.20933 20.4588 8.54113C21.5836 9.6659 22.203 11.1585 22.203 12.7442C22.203 14.3299 21.5836 15.8225 20.4588 16.9473C20.127 17.2791 20.127 17.817 20.4588 18.1488Z" fill="#212862"/>
</svg>
