<svg width="15" height="15" viewBox="0 0 15 15" fill="none" xmlns="http://www.w3.org/2000/svg">
<path d="M4.4364 6.48489L1.16064 12.6565L4.13532 12.3817L5.57506 14.9995L8.85081 8.82787L4.4364 6.48489Z" fill="#E95454"/>
<path d="M4.81143 13.2024C4.90335 13.005 4.80721 12.7691 4.61493 12.6669L4.42641 12.5665C4.23788 12.4591 4.16613 12.2204 4.26883 12.0272C4.37294 11.8307 4.61775 11.7556 4.81424 11.8598L5.34699 12.1425C5.5116 12.2298 5.71795 12.1665 5.80283 12.0009L5.81596 11.9756C5.91351 11.8194 5.85583 11.6131 5.69356 11.5273L4.1 10.6817C3.90585 10.5785 3.81065 10.3436 3.90116 10.1457C4.00105 9.93511 4.25336 9.8521 4.45642 9.95996L5.93461 10.7445C6.09922 10.8318 6.30557 10.7685 6.3928 10.6039L6.40124 10.5823L6.40358 10.5776C6.49785 10.405 6.43172 10.1883 6.25773 10.096L5.4286 9.65607C5.23444 9.55289 5.13924 9.31794 5.23116 9.11769C5.33011 8.90947 5.58336 8.82412 5.78642 8.93198L6.70232 9.4183C6.87349 9.50928 7.07796 9.43331 7.1666 9.26073C7.168 9.25838 7.168 9.25838 7.16894 9.25604C7.17035 9.25369 7.17035 9.25369 7.17129 9.25135C7.26461 9.08111 7.21303 8.86914 7.04138 8.77863L6.05326 8.25432C5.86145 8.15255 5.76625 7.9176 5.85676 7.71969C5.95666 7.50912 6.20896 7.42612 6.41202 7.53398L8.84973 8.82787L5.57398 14.9995L4.67121 13.3586C4.72936 13.3192 4.78001 13.2704 4.81143 13.2024Z" fill="#ED6362"/>
<path d="M10.5638 6.48489L13.8396 12.6565L10.8649 12.3817L9.42517 14.9995L6.14941 8.82787L10.5638 6.48489Z" fill="#ED6362"/>
<path d="M10.1887 13.2024C10.0968 13.005 10.1929 12.7691 10.3852 12.6669L10.5737 12.5665C10.7622 12.4591 10.834 12.2204 10.7313 12.0272C10.6272 11.8307 10.3824 11.7557 10.1859 11.8598L9.6531 12.1426C9.4885 12.2298 9.28215 12.1665 9.19727 12.0009L9.18414 11.9756C9.08659 11.8194 9.14427 11.6131 9.30654 11.5273L10.9006 10.6813C11.0947 10.5781 11.1899 10.3431 11.0994 10.1452C10.9995 9.93466 10.7472 9.85165 10.5441 9.95951L9.06595 10.7441C8.90135 10.8313 8.695 10.768 8.60777 10.6034L8.59933 10.5818L8.59699 10.5771C8.50272 10.4046 8.56885 10.1879 8.74284 10.0955L9.57197 9.65562C9.76613 9.55245 9.86133 9.31749 9.76941 9.11724C9.67046 8.90902 9.41721 8.82367 9.21415 8.93153L8.29731 9.41879C8.12614 9.50977 7.92167 9.4338 7.83303 9.26121C7.83163 9.25887 7.83163 9.25887 7.83069 9.25653C7.82928 9.25418 7.82928 9.25418 7.82834 9.25184C7.73502 9.0816 7.78661 8.86962 7.95825 8.77911L8.94637 8.25481C9.13818 8.15304 9.23338 7.91809 9.14287 7.72018C9.04298 7.50961 8.79067 7.42661 8.58761 7.53447L6.1499 8.82836L9.42565 15L10.3284 13.3591C10.2707 13.3192 10.2201 13.2704 10.1887 13.2024Z" fill="#E95454"/>
<path d="M7.5002 10.9467C10.523 10.9467 12.9735 8.49619 12.9735 5.47335C12.9735 2.4505 10.523 0 7.5002 0C4.47736 0 2.02686 2.4505 2.02686 5.47335C2.02686 8.49619 4.47736 10.9467 7.5002 10.9467Z" fill="#FFCC5B"/>
<path d="M8.24226 4.84541H4.77376C4.5041 4.84541 4.28275 4.62405 4.28275 4.35439L4.2865 4.32063V4.31312C4.28275 4.02846 4.51489 3.79585 4.80002 3.79585H7.20396C7.52239 3.79585 7.80378 3.55996 7.82253 3.24106C7.83754 2.90762 7.57164 2.62624 7.23773 2.62624H4.69122C4.41031 2.62624 4.20021 2.39035 4.20396 2.10897C4.20396 2.10522 4.20396 2.10522 4.20396 2.10146C4.20396 2.09771 4.20396 2.09771 4.20396 2.09396C4.20021 1.81305 4.40984 1.57669 4.69122 1.57669H7.35591C7.67059 1.57669 7.95197 1.34079 7.97073 1.02565C7.98574 0.688458 7.71983 0.410828 7.38592 0.410828H5.43454C3.4447 1.23106 2.04248 3.1876 2.04248 5.47336C2.04248 7.75911 3.4447 9.71519 5.43501 10.5345H7.91258C8.22725 10.5345 8.50864 10.2986 8.5274 9.98344C8.5424 9.64625 8.2765 9.36909 7.94259 9.36909L5.12408 9.36862C4.79158 9.36862 4.5238 9.09052 4.54162 8.7538C4.55803 8.43865 4.84129 8.20182 5.15691 8.20182H6.24961C6.56382 8.19291 6.81753 7.93545 6.81753 7.61889C6.81753 7.29671 6.55538 7.03409 6.23273 7.03409H4.57632C4.30667 7.03409 4.08531 6.8132 4.08906 6.54308V6.50181C4.07031 6.2359 4.28416 6.0108 4.55006 6.0108H8.2085C8.52693 6.0108 8.80831 5.7749 8.82707 5.45976C8.84207 5.12304 8.5757 4.84541 8.24226 4.84541Z" fill="#FDBC4B"/>
<path d="M7.50025 9.37988C5.3458 9.37988 3.59326 7.62687 3.59326 5.4729C3.59326 3.31892 5.3458 1.56638 7.50025 1.56638C9.6547 1.56638 11.4072 3.31939 11.4072 5.47336C11.4072 7.62734 9.6547 9.37988 7.50025 9.37988Z" fill="#FFDB70"/>
<path opacity="0.2" d="M11.4071 5.47334C11.4071 3.39486 9.77417 1.69485 7.7243 1.57761H7.36038C7.12027 1.57761 6.90595 1.75769 6.89141 1.9978C6.88016 2.2548 7.08275 2.46677 7.3374 2.46677L9.48716 2.46724C9.74087 2.46724 9.94487 2.67922 9.93127 2.93621C9.91861 3.17679 9.70289 3.35735 9.46184 3.35735H8.62848C8.38883 3.36438 8.19515 3.56041 8.19515 3.80193C8.19515 4.04767 8.3954 4.24792 8.64114 4.24792H9.90454C10.1104 4.24792 10.2788 4.41675 10.276 4.62216V4.65311C10.29 4.85617 10.1273 5.02735 9.92424 5.02735H7.13434C6.89141 5.02735 6.67709 5.20743 6.66256 5.44755C6.6513 5.70454 6.8539 5.91652 7.10855 5.91652H9.75353C9.95941 5.91652 10.1278 6.08534 10.1278 6.29075L10.125 6.31655V6.32217C10.1278 6.53931 9.9505 6.71658 9.73337 6.71658H7.8997C7.65677 6.71658 7.44245 6.89666 7.42791 7.13959C7.41666 7.39377 7.61925 7.60856 7.8739 7.60856H9.81591C10.0302 7.60856 10.1901 7.78864 10.1873 8.00296C10.1873 8.00578 10.1873 8.00578 10.1873 8.00859C10.1873 8.0114 10.1873 8.0114 10.1873 8.01422C10.1901 8.22854 10.0302 8.40862 9.81591 8.40862H7.78386C7.54375 8.40862 7.32943 8.58871 7.31489 8.82882C7.30364 9.08628 7.50623 9.29779 7.76088 9.29779H8.29691C10.071 8.92824 11.4071 7.35391 11.4071 5.47334Z" fill="white"/>
<path d="M10.2274 4.6081H8.32709L7.73947 2.80069C7.66397 2.56855 7.33522 2.56855 7.25972 2.80069L6.67257 4.6081H4.7723C4.52797 4.6081 4.4262 4.9209 4.62411 5.06441L6.16139 6.1815L5.57424 7.9889C5.49873 8.22105 5.76464 8.41426 5.96255 8.27076L7.49983 7.15367L9.03711 8.27076C9.23502 8.41426 9.50092 8.22105 9.42542 7.9889L8.83827 6.1815L10.3756 5.06441C10.573 4.9209 10.4717 4.6081 10.2274 4.6081Z" fill="#EC9922"/>
</svg>
